<svg width="18" height="16" viewBox="0 0 18 16" fill="none" xmlns="http://www.w3.org/2000/svg">
<path fill-rule="evenodd" clip-rule="evenodd" d="M13.7179 4.94946C13.9366 4.94854 14.1461 4.86174 14.3013 4.70779L14.8929 4.11612C15.1307 3.91246 15.2343 3.59269 15.1611 3.28827C15.0879 2.98386 14.8502 2.74617 14.5458 2.67295C14.2414 2.59972 13.9216 2.70331 13.7179 2.94112L13.1679 3.53279C12.8448 3.85782 12.8448 4.38276 13.1679 4.70779C13.3148 4.85392 13.5109 4.94008 13.7179 4.94946ZM9.00132 3C9.46156 3 9.83466 2.6269 9.83466 2.16667V1.33333C9.83466 0.873096 9.46156 0.5 9.00132 0.5C8.54109 0.5 8.16799 0.873096 8.16799 1.33333V2.16667C8.16799 2.6269 8.54109 3 9.00132 3ZM2.33464 8.00002H1.5013C1.04106 8.00002 0.667969 8.37312 0.667969 8.83336C0.667969 9.2936 1.04106 9.66669 1.5013 9.66669H2.33464C2.79487 9.66669 3.16797 9.2936 3.16797 8.83336C3.16797 8.37312 2.79487 8.00002 2.33464 8.00002ZM3.70126 4.7084C3.85648 4.86235 4.06598 4.94914 4.28459 4.95007C4.5061 4.95135 4.719 4.86439 4.87626 4.7084C5.19936 4.38337 5.19936 3.85843 4.87626 3.5334L4.28459 2.94173C3.95396 2.65858 3.4611 2.67762 3.15329 2.98543C2.84548 3.29324 2.82645 3.7861 3.10959 4.11673L3.70126 4.7084ZM16.5013 8.00002H15.6679C15.2077 8.00002 14.8346 8.37312 14.8346 8.83336C14.8346 9.2936 15.2077 9.66669 15.6679 9.66669H16.5013C16.9615 9.66669 17.3346 9.2936 17.3346 8.83336C17.3346 8.37312 16.9615 8.00002 16.5013 8.00002ZM8.16795 13.8335H5.66795C5.20771 13.8335 4.83462 14.2066 4.83462 14.6668C4.83462 15.127 5.20771 15.5001 5.66795 15.5001H8.16795C8.62819 15.5001 9.00128 15.127 9.00128 14.6668C9.00128 14.2066 8.62819 13.8335 8.16795 13.8335ZM14.0013 10.4998H13.2679C13.4784 9.96937 13.5859 9.40373 13.5846 8.8331C13.5846 6.3018 11.5326 4.24977 9.00127 4.24977C6.46996 4.24977 4.41793 6.3018 4.41793 8.8331C4.41666 9.40373 4.52414 9.96937 4.7346 10.4998H4.00127C3.54103 10.4998 3.16793 10.8729 3.16793 11.3331C3.16793 11.7933 3.54103 12.1664 4.00127 12.1664H14.0013C14.4615 12.1664 14.8346 11.7933 14.8346 11.3331C14.8346 10.8729 14.4615 10.4998 14.0013 10.4998ZM11.3763 10.5001H6.62632C6.27622 10.0147 6.08681 9.43195 6.08466 8.83347C6.08466 7.22264 7.39049 5.91681 9.00132 5.91681C10.6122 5.91681 11.918 7.22264 11.918 8.83347C11.9158 9.43195 11.7264 10.0147 11.3763 10.5001ZM12.3346 13.8335H11.5013C11.041 13.8335 10.6679 14.2066 10.6679 14.6668C10.6679 15.127 11.041 15.5001 11.5013 15.5001H12.3346C12.7948 15.5001 13.1679 15.127 13.1679 14.6668C13.1679 14.2066 12.7948 13.8335 12.3346 13.8335Z" fill="#F07349"/>
</svg>
