<svg width="16" height="12" viewBox="0 0 16 12" fill="none" xmlns="http://www.w3.org/2000/svg">
<path fill-rule="evenodd" clip-rule="evenodd" d="M14.7085 1.20986C14.5207 1.02055 14.2651 0.914062 13.9985 0.914062C13.7319 0.914062 13.4763 1.02055 13.2885 1.20986L5.83851 8.66986L2.70851 5.52986C2.44592 5.2762 2.06795 5.1819 1.71698 5.28248C1.36601 5.38306 1.09536 5.66324 1.00698 6.01748C0.9186 6.37172 1.02592 6.7462 1.28851 6.99986L5.12851 10.8399C5.31628 11.0292 5.57187 11.1357 5.83851 11.1357C6.10515 11.1357 6.36074 11.0292 6.54851 10.8399L14.7085 2.67986C14.9137 2.49054 15.0304 2.22406 15.0304 1.94486C15.0304 1.66566 14.9137 1.39918 14.7085 1.20986Z" fill="white"/>
</svg>
