<svg width="11" height="11" viewBox="0 0 11 11" fill="none" xmlns="http://www.w3.org/2000/svg">
<path fill-rule="evenodd" clip-rule="evenodd" d="M0.0690875 5.61968C0.112342 5.7277 0.177201 5.82638 0.259942 5.91008L4.80409 10.31C5.03463 10.5332 5.37063 10.6204 5.68555 10.5387C6.00046 10.457 6.24644 10.2188 6.33082 9.91393C6.4152 9.60901 6.32517 9.28366 6.09463 9.06044L3.09549 6.16527L9.99351 6.16527C10.4954 6.16527 10.9023 5.77129 10.9023 5.28528C10.9023 4.79928 10.4954 4.40529 9.99351 4.40529L3.09549 4.40529L6.09463 1.51012C6.26668 1.34489 6.36346 1.11996 6.36346 0.885327C6.36346 0.650689 6.26668 0.425765 6.09463 0.260533C5.92398 0.0939393 5.69169 0.000233152 5.44936 0.000233173C5.20703 0.000233194 4.97474 0.0939393 4.80409 0.260533L0.259942 4.66049C0.177201 4.74418 0.112342 4.84287 0.0690875 4.95089C-0.021812 5.16513 -0.0218119 5.40543 0.0690875 5.61968Z" fill="white"/>
</svg>
