<svg width="11" height="12" viewBox="0 0 11 12" fill="none" xmlns="http://www.w3.org/2000/svg">
<path fill-rule="evenodd" clip-rule="evenodd" d="M10.8333 5.64595C10.79 5.53793 10.7251 5.43924 10.6424 5.35555L6.09825 0.955595C5.86772 0.732378 5.53171 0.645202 5.2168 0.726905C4.90188 0.808608 4.65591 1.04678 4.57153 1.3517C4.48715 1.65662 4.57718 1.98197 4.80771 2.20518L7.80685 5.10035H0.90883C0.406897 5.10035 0 5.49434 0 5.98034C0 6.46635 0.406897 6.86034 0.90883 6.86034H7.80685L4.80771 9.75551C4.63566 9.92074 4.53888 10.1457 4.53888 10.3803C4.53888 10.6149 4.63566 10.8399 4.80771 11.0051C4.97836 11.1717 5.21065 11.2654 5.45298 11.2654C5.69531 11.2654 5.9276 11.1717 6.09825 11.0051L10.6424 6.60514C10.7251 6.52145 10.79 6.42276 10.8333 6.31474C10.9242 6.1005 10.9242 5.86019 10.8333 5.64595Z" fill="white"/>
</svg>
