<svg width="15" height="16" viewBox="0 0 15 16" fill="none" xmlns="http://www.w3.org/2000/svg">
<path fill-rule="evenodd" clip-rule="evenodd" d="M2.99636 11.7498L2.49345 12.2823C2.21881 12.5748 2.21881 13.0472 2.49345 13.3398C2.76972 13.6306 3.21592 13.6306 3.49219 13.3398L3.99511 12.8073C4.23579 12.5097 4.2196 12.0661 3.95797 11.7891C3.69633 11.5121 3.2774 11.4949 2.99636 11.7498ZM2.54297 7.9997C2.54297 7.58549 2.22584 7.2497 1.83464 7.2497H1.1263C0.7351 7.2497 0.417969 7.58549 0.417969 7.9997C0.417969 8.41391 0.7351 8.7497 1.1263 8.7497H1.83464C2.22584 8.7497 2.54297 8.41391 2.54297 7.9997ZM7.50127 2.74951C7.89247 2.74951 8.2096 2.41373 8.2096 1.99951V1.24951C8.2096 0.835298 7.89247 0.499512 7.50127 0.499512C7.11006 0.499512 6.79293 0.835298 6.79293 1.24951V1.99951C6.79293 2.41373 7.11006 2.74951 7.50127 2.74951ZM2.99631 4.28702C3.12824 4.42557 3.30632 4.50369 3.49214 4.50452C3.68042 4.50567 3.86138 4.42741 3.99506 4.28702C4.2697 3.99449 4.2697 3.52204 3.99506 3.22952L3.49214 2.69702C3.2111 2.44218 2.79217 2.45932 2.53054 2.73634C2.2689 3.01337 2.25272 3.45695 2.49339 3.75452L2.99631 4.28702ZM11.4964 4.50455C11.6822 4.50372 11.8603 4.42561 11.9922 4.28705L12.4951 3.75455C12.6973 3.57125 12.7853 3.28346 12.7231 3.00948C12.6608 2.73551 12.4588 2.52159 12.2 2.45569C11.9413 2.38979 11.6695 2.48301 11.4964 2.69705L11.043 3.22955C10.7684 3.52208 10.7684 3.99452 11.043 4.28705C11.1679 4.41857 11.3346 4.49611 11.5105 4.50455H11.4964ZM13.8763 7.2497H13.1679C12.7767 7.2497 12.4596 7.58549 12.4596 7.9997C12.4596 8.41391 12.7767 8.7497 13.1679 8.7497H13.8763C14.2675 8.7497 14.5846 8.41391 14.5846 7.9997C14.5846 7.58549 14.2675 7.2497 13.8763 7.2497ZM7.50126 13.2494C7.11006 13.2494 6.79293 13.5851 6.79293 13.9994V14.7494C6.79293 15.1636 7.11006 15.4994 7.50126 15.4994C7.89246 15.4994 8.20959 15.1636 8.20959 14.7494V13.9994C8.20959 13.5851 7.89246 13.2494 7.50126 13.2494ZM12.0063 11.7496C11.7298 11.5868 11.3848 11.6378 11.1611 11.8747C10.9374 12.1116 10.8891 12.4768 11.0429 12.7696L11.5459 13.3021C11.8221 13.5929 12.2683 13.5929 12.5446 13.3021C12.8193 13.0096 12.8193 12.5371 12.5446 12.2446L12.0063 11.7496ZM7.50128 3.87461C5.34967 3.87461 3.60544 5.72143 3.60544 7.9996C3.60544 10.2778 5.34967 12.1246 7.50128 12.1246C9.65289 12.1246 11.3971 10.2778 11.3971 7.9996C11.3932 5.72314 9.65127 3.87873 7.50128 3.87461ZM7.50127 10.6244C6.49854 10.6244 5.59455 9.98479 5.21082 9.0039C4.82709 8.023 5.0392 6.89394 5.74824 6.1432C6.45727 5.39245 7.52361 5.16787 8.45001 5.57417C9.37641 5.98047 9.98044 6.93764 9.98044 7.99935C9.98044 9.4491 8.87048 10.6244 7.50127 10.6244Z" fill="#F4CE5C"/>
</svg>
